<?xml version="1.0" encoding="utf-8"?>
<!-- Generator: Adobe Illustrator 21.0.0, SVG Export Plug-In . SVG Version: 6.00 Build 0)  -->
<!DOCTYPE svg PUBLIC "-//W3C//DTD SVG 1.1//EN" "http://www.w3.org/Graphics/SVG/1.1/DTD/svg11.dtd">
<svg version="1.1" id="Layer_1" xmlns="http://www.w3.org/2000/svg" xmlns:xlink="http://www.w3.org/1999/xlink" x="0px" y="0px"
	 viewBox="0 0 841.9 1190.6" enable-background="new 0 0 841.9 1190.6" xml:space="preserve">
<path d="M0,0v1190.6h841.9V0H0z M600.6,153.8c0-8.2,6.7-14.8,14.8-14.8h79.9c7.4,0,13.3,5.9,13.3,13.3s-5.9,13.3-13.3,13.3h-65v45.8
	h48.4c7.2,0,13.1,5.9,13.1,13.1s-5.9,13.1-13.1,13.1h-48.4v47.1h67.8c7.4,0,13.3,5.9,13.3,13.3c0,7.4-5.9,13.3-13.3,13.3h-82.7
	c-8.2,0-14.8-6.7-14.8-14.8V153.8z M458.3,151.7c0-8.2,6.7-14.8,14.8-14.8c8.2,0,14.8,6.7,14.8,14.8v58.6l61.4-68.6
	c3.1-3.3,6.9-4.9,10.8-4.9c7.9,0,14.3,6.4,14.3,14.3c0,4.1-1.5,7.2-3.8,9.7l-48.1,52.2l56.6,77.1c1.8,2.3,2.8,5.4,2.8,8.4
	c0,7.9-6.7,14.6-14.6,14.6c-6.1,0-10-3.6-12-6.4l-52.7-73L488,249.3v49.2c0,8.2-6.7,14.8-14.8,14.8c-8.2,0-14.8-6.7-14.8-14.8V151.7
	z M97.3,583.6c0-7.7,6.1-13.8,13.6-13.8c5.6,0,8.7,3.1,11.3,5.6c10.8,10.8,24.3,19.5,42,19.5c23.3,0,34.6-7.7,34.6-23.6
	c0-37.4-93.4-20.2-93.4-81.9c0-25.3,18.2-46.8,58.9-46.8c25.6,0,47.9,9.5,58.1,24.1c1.5,2.3,2.6,5.1,2.6,8.2
	c0,7.4-6.1,13.6-13.8,13.6c-3.6,0-7.2-2-11-5.6c-7.9-7.7-21.2-13.6-35.8-13.6c-21.2,0-29.2,10-29.2,20.2c0,33.5,93.4,17.9,93.4,81.9
	c0,31.2-22,50.7-64.3,50.7c-30.5,0-54.8-15.1-64.8-31.2C98.1,588.7,97.3,586.2,97.3,583.6z M235.3,913.1c0,7.9-6.7,14.6-14.6,14.6
	c-4.9,0-9.5-2.6-12-6.4l-75.5-109.1v100.9c0,7.9-6.7,14.6-14.6,14.6c-7.9,0-14.6-6.7-14.6-14.6V765.9c0-7.9,6.7-14.6,14.6-14.6
	c5.1,0,9.2,2.3,11.8,6.1l75.8,109.8V765.9c0-7.9,6.7-14.6,14.6-14.6c7.9,0,14.6,6.7,14.6,14.6V913.1z M238.6,298.7v-93.2l-40.2,71.4
	c-2.6,4.6-7.4,7.2-12.5,7.2c-5.1,0-10-2.6-12.5-7.2l-40.2-71.4v93.2c0,7.9-6.7,14.6-14.6,14.6c-7.9,0-14.6-6.7-14.6-14.6V151.5
	c0-7.9,6.7-14.6,14.6-14.6c6.4,0,10.5,3.6,13.1,8.2l54.3,97.3l54.3-97.3c2.6-4.6,6.7-8.2,13.1-8.2c7.9,0,14.6,6.7,14.6,14.6v147.2
	c0,7.9-6.7,14.6-14.6,14.6C245.3,313.3,238.6,306.6,238.6,298.7z M326.4,442.6c51.7,0,81.2,29.2,81.2,89.9
	c0,59.9-29.4,89.6-81.2,89.6s-81.2-29.7-81.2-89.6C245.3,471.7,274.7,442.6,326.4,442.6z M339.2,929.2c-51.7,0-81.2-29.7-81.2-89.6
	c0-60.7,29.4-89.9,81.2-89.9s81.2,29.2,81.2,89.9C420.4,899.5,390.9,929.2,339.2,929.2z M409.6,303.5L394,266.4h-62l-15.6,37.1
	c-2.3,5.4-7.2,9.7-13.8,9.7c-7.9,0-14.6-6.7-14.6-14.6c0-1.5,0.3-3.6,1-5.4l60.4-147.2c1.5-3.6,5.6-9.2,13.6-9.2
	c7.9,0,12,5.6,13.6,9.2L437,293.3c0.8,1.8,1,3.8,1,5.4c0,7.9-6.7,14.6-14.6,14.6C416.8,313.3,411.9,308.9,409.6,303.5z M430.4,605.9
	V458.7c0-7.9,6.7-14.6,14.6-14.6c6.4,0,10.5,3.6,13.1,8.2l54.3,97.3l54.3-97.3c2.6-4.6,6.7-8.2,13.1-8.2c7.9,0,14.6,6.7,14.6,14.6
	v147.2c0,7.9-6.7,14.6-14.6,14.6c-7.9,0-14.6-6.7-14.6-14.6v-93.2l-40.2,71.4c-2.6,4.6-7.4,7.2-12.5,7.2s-10-2.6-12.5-7.2
	l-40.2-71.4v93.2c0,7.9-6.7,14.6-14.6,14.6C437,620.5,430.4,613.8,430.4,605.9z M474.1,912.8c0,8.2-6.7,14.8-14.8,14.8
	c-8.2,0-14.8-6.7-14.8-14.8V766.1c0-8.2,6.7-14.8,14.8-14.8c8.2,0,14.8,6.7,14.8,14.8V912.8z M563.7,929.2
	c-30.5,0-54.8-15.1-64.8-31.2c-1.3-2-2-4.6-2-7.2c0-7.7,6.1-13.8,13.6-13.8c5.6,0,8.7,3.1,11.3,5.6c10.8,10.8,24.3,19.5,42,19.5
	c23.3,0,34.6-7.7,34.6-23.6c0-37.4-93.4-20.2-93.4-81.9c0-25.3,18.2-46.8,58.9-46.8c25.6,0,47.9,9.5,58.1,24.1
	c1.5,2.3,2.6,5.1,2.6,8.2c0,7.4-6.1,13.6-13.8,13.6c-3.6,0-7.2-2-11-5.6c-7.9-7.7-21.2-13.6-35.8-13.6c-21.2,0-29.2,10-29.2,20.2
	c0,33.5,93.4,17.9,93.4,81.9C628,909.8,606,929.2,563.7,929.2z M624.9,603.6V461c0-8.2,6.7-14.8,14.8-14.8h79.9
	c7.4,0,13.3,5.9,13.3,13.3s-5.9,13.3-13.3,13.3h-65v45.8H703c7.2,0,13.1,5.9,13.1,13.1s-5.9,13.1-13.1,13.1h-48.4v47.1h67.8
	c7.4,0,13.3,5.9,13.3,13.3s-5.9,13.3-13.3,13.3h-82.7C631.6,618.4,624.9,611.8,624.9,603.6z M749.1,925.6h-82.7
	c-8.2,0-14.8-6.7-14.8-14.8V768.2c0-8.2,6.7-14.8,14.8-14.8h79.9c7.4,0,13.3,5.9,13.3,13.3s-5.9,13.3-13.3,13.3h-65v45.8h48.4
	c7.2,0,13.1,5.9,13.1,13.1s-5.9,13.1-13.1,13.1h-48.4V899h67.8c7.4,0,13.3,5.9,13.3,13.3S756.5,925.6,749.1,925.6z"/>
</svg>
