<?xml version="1.0" encoding="utf-8"?>
<!-- Generator: Adobe Illustrator 21.0.0, SVG Export Plug-In . SVG Version: 6.00 Build 0)  -->
<!DOCTYPE svg PUBLIC "-//W3C//DTD SVG 1.1//EN" "http://www.w3.org/Graphics/SVG/1.1/DTD/svg11.dtd">
<svg version="1.1" id="Layer_1" xmlns="http://www.w3.org/2000/svg" xmlns:xlink="http://www.w3.org/1999/xlink" x="0px" y="0px"
	 viewBox="0 0 1133.9 1417.3" style="enable-background:new 0 0 1133.9 1417.3;" xml:space="preserve">
<path d="M131.5,273.9L63.6,153.3v157.4c0,13.3-11.3,24.7-24.7,24.7S14.3,324,14.3,310.7V62c0-13.3,11.3-24.7,24.7-24.7
	c10.8,0,17.7,6.1,22.1,13.8l91.7,164.3l91.7-164.3c4.4-7.8,11.3-13.8,22.1-13.8c13.3,0,24.7,11.3,24.7,24.7v248.6
	c0,13.3-11.3,24.7-24.7,24.7c-13.3,0-24.7-11.3-24.7-24.7V153.3l-67.9,120.6c-4.4,7.8-12.5,12.2-21.1,12.2
	C144.2,286,135.9,281.6,131.5,273.9z"/>
<path d="M399.8,256.1l-26.3,62.7c-3.9,9.1-12.2,16.4-23.3,16.4c-13.3,0-24.7-11.3-24.7-24.7c0-2.5,0.5-6.1,1.7-9.1l102-248.6
	c2.5-6.1,9.5-15.5,23-15.5c13.3,0,20.3,9.5,23,15.5l101.8,248.8c1.4,3,1.7,6.4,1.7,9.1c0,13.3-11.3,24.7-24.7,24.7
	c-11.3,0-19.4-7.4-23.3-16.4l-26.3-62.8H399.8z M451.9,119.5l-35.5,90.9h70.9L451.9,119.5z"/>
<path d="M663.1,161.5L766.8,45.7c5.2-5.6,11.7-8.3,18.2-8.3c13.3,0,24.2,10.8,24.2,24.2c0,6.9-2.5,12.2-6.4,16.4l-81.2,88.2
	l95.6,130.2c3,3.9,4.7,9.1,4.7,14.2c0,13.3-11.3,24.7-24.7,24.7c-10.3,0-16.9-6.1-20.3-10.8l-89-123.3l-24.8,26.2v83.1
	c0,13.8-11.3,25-25,25c-13.8,0-25-11.3-25-25V62.4c0-13.8,11.3-25,25-25c13.8,0,25,11.3,25,25V161.5z"/>
<path d="M903.4,163.2h81.7c12.2,0,22.1,10,22.1,22.1s-10,22.1-22.1,22.1h-81.7V287h114.5c12.5,0,22.5,10,22.5,22.5
	c0,12.5-10,22.5-22.5,22.5H878.3c-13.8,0-25-11.3-25-25v-241c0-13.8,11.3-25,25-25h135c12.5,0,22.5,10,22.5,22.5s-10,22.5-22.5,22.5
	H903.4V163.2z"/>
<path d="M116,598.6c-35.8,0-49.3,16.9-49.3,34.1c0,56.6,157.8,30.2,157.8,138.3c0,52.7-37.2,85.6-108.6,85.6
	c-51.5,0-92.6-25.5-109.4-52.7c-2.2-3.4-3.4-7.8-3.4-12.2c0-13,10.3-23.3,23-23.3c9.5,0,14.7,5.2,19.1,9.5
	c18.2,18.2,41,32.9,70.9,32.9c39.4,0,58.4-13,58.4-39.9c0-63.2-157.8-34.1-157.8-138.3c0-42.7,30.7-79,99.5-79
	c43.2,0,80.9,16,98.1,40.7c2.5,3.9,4.4,8.6,4.4,13.8c0,12.5-10.3,23-23.3,23c-6.1,0-12.2-3.4-18.6-9.5
	C163.1,608.6,140.7,598.6,116,598.6z"/>
<path d="M253.1,705.4c0-102.5,49.7-151.8,137.1-151.8s137.1,49.3,137.1,151.8c0,101.2-49.7,151.3-137.1,151.3
	S253.1,806.6,253.1,705.4z M305,705.4c0,71.3,28,106.4,85.1,106.4s85.1-35,85.1-106.4c0-71.8-28-106.7-85.1-106.7
	S305,633.6,305,705.4z"/>
<path d="M682.8,792.7l-67.9-120.6v157.4c0,13.3-11.3,24.7-24.7,24.7c-13.3,0-24.7-11.3-24.7-24.7V580.9c0-13.3,11.3-24.7,24.7-24.7
	c10.8,0,17.7,6.1,22.1,13.8l91.7,164.3l91.7-164.3c4.4-7.8,11.3-13.8,22.1-13.8c13.3,0,24.7,11.3,24.7,24.7v248.6
	c0,13.3-11.3,24.7-24.7,24.7c-13.3,0-24.7-11.3-24.7-24.7V672.1l-67.9,120.6c-4.4,7.8-12.5,12.2-21.1,12.2S687.2,800.5,682.8,792.7z
	"/>
<path d="M944.5,682.1h81.7c12.2,0,22.1,10,22.1,22.1s-10,22.1-22.1,22.1h-81.7v79.6H1059c12.5,0,22.5,10,22.5,22.5
	s-10,22.5-22.5,22.5H919.3c-13.8,0-25-11.3-25-25v-241c0-13.8,11.3-25,25-25h135c12.5,0,22.5,10,22.5,22.5s-10,22.5-22.5,22.5H944.5
	V682.1z"/>
<path d="M236.3,1099.8v248.6c0,13.3-11.3,24.7-24.7,24.7c-8.3,0-16-4.4-20.3-10.8L63.8,1178v170.4c0,13.3-11.3,24.7-24.7,24.7
	s-24.7-11.3-24.7-24.7v-248.6c0-13.3,11.3-24.7,24.7-24.7c8.6,0,15.5,3.9,19.9,10.3l128,185.5v-171.1c0-13.3,11.3-24.7,24.7-24.7
	C224.9,1075.1,236.3,1086.3,236.3,1099.8z"/>
<path d="M274.8,1224.3c0-102.5,49.7-151.8,137.1-151.8s137.1,49.3,137.1,151.8c0,101.2-49.7,151.3-137.1,151.3
	S274.8,1325.4,274.8,1224.3z M326.6,1224.3c0,71.3,28,106.4,85.1,106.4s85.1-35,85.1-106.4c0-71.8-28-106.7-85.1-106.7
	S326.6,1152.5,326.6,1224.3z"/>
<path d="M639.6,1347.9c0,13.8-11.3,25-25,25c-13.8,0-25-11.3-25-25v-247.8c0-13.8,11.3-25,25-25c13.8,0,25,11.3,25,25V1347.9z"/>
<path d="M790.9,1117.5c-35.8,0-49.3,16.9-49.3,34.1c0,56.6,157.8,30.2,157.8,138.3c0,52.7-37.2,85.6-108.6,85.6
	c-51.5,0-92.6-25.5-109.4-52.7c-2.2-3.4-3.4-7.8-3.4-12.2c0-13,10.3-23.3,23-23.3c9.5,0,14.7,5.2,19.1,9.5
	c18.2,18.2,41,32.9,70.9,32.9c39.4,0,58.4-13,58.4-39.9c0-63.2-157.8-34.1-157.8-138.3c0-42.7,30.7-79,99.5-79
	c43.2,0,80.9,16,98.1,40.7c2.5,3.9,4.4,8.6,4.4,13.8c0,12.5-10.3,23-23.3,23c-6.1,0-12.2-3.4-18.6-9.5
	C838.1,1127.5,815.6,1117.5,790.9,1117.5z"/>
<path d="M989.4,1201h81.7c12.2,0,22.1,10,22.1,22.1c0,12.2-10,22.1-22.1,22.1h-81.7v79.4h114.5c12.5,0,22.5,10,22.5,22.5
	s-10,22.5-22.5,22.5H964.2c-13.8,0-25-11.3-25-25v-240.9c0-13.8,11.3-25,25-25h135c12.5,0,22.5,10,22.5,22.5s-10,22.5-22.5,22.5
	H989.4V1201z"/>
</svg>
