<?xml version="1.0" encoding="utf-8"?>
<!-- Generator: Adobe Illustrator 21.0.0, SVG Export Plug-In . SVG Version: 6.00 Build 0)  -->
<!DOCTYPE svg PUBLIC "-//W3C//DTD SVG 1.1//EN" "http://www.w3.org/Graphics/SVG/1.1/DTD/svg11.dtd">
<svg version="1.1" id="Layer_1" xmlns="http://www.w3.org/2000/svg" xmlns:xlink="http://www.w3.org/1999/xlink" x="0px" y="0px"
	 viewBox="0 0 1190.6 841.9" enable-background="new 0 0 1190.6 841.9" xml:space="preserve">
<path d="M185.3,207.7l-37.9,135.1c-2.3,8.2-9.6,14.2-18.5,14.2c-8.6,0-15.8-5.6-18.1-13.2L54.5,155c-0.7-2-1-3.6-1-5.9
	c0-10.5,8.6-19.1,19.1-19.1s16.5,7.6,18.1,13.2l38.6,138.4l37.6-137.7c2.3-8.6,10.2-13.8,18.5-13.8c8.2,0,16.1,5.3,18.5,13.8
	l37.6,137.7l38.6-138.4c1.6-5.6,7.6-13.2,18.1-13.2c10.5,0,19.1,8.6,19.1,19.1c0,2.3-0.3,4-1,5.9l-56.4,188.8
	c-2.3,7.6-9.6,13.2-18.1,13.2c-8.9,0-16.1-5.9-18.5-14.2L185.3,207.7z"/>
<path d="M414.7,216.9l49.8-78.1c3.3-5.3,9.2-8.9,16.1-8.9c10.5,0,19.1,8.6,19.1,19.1c0,3.6-1,7.6-3,10.2l-62.9,93.9v84.7
	c0,10.5-8.6,19.1-19.1,19.1c-10.5,0-19.1-8.6-19.1-19.1v-84.7l-62.9-93.9c-2-2.6-3-6.6-3-10.2c0-10.5,8.6-19.1,19.1-19.1
	c6.9,0,12.5,3.3,16.1,8.9L414.7,216.9z"/>
<path d="M512.2,243.6c0-78.1,37.9-115.7,104.5-115.7s104.5,37.6,104.5,115.7c0,77.1-37.9,115.3-104.5,115.3S512.2,320.7,512.2,243.6
	z M551.7,243.6c0,54.4,21.4,81.1,64.9,81.1c43.5,0,64.9-26.7,64.9-81.1c0-54.7-21.4-81.4-64.9-81.4
	C573.2,162.2,551.7,188.9,551.7,243.6z"/>
<path d="M839.8,310.2L788,218.3v120c0,10.2-8.6,18.8-18.8,18.8c-10.2,0-18.8-8.6-18.8-18.8V148.7c0-10.2,8.6-18.8,18.8-18.8
	c8.2,0,13.5,4.6,16.8,10.5l69.9,125.2l69.9-125.2c3.3-5.9,8.6-10.5,16.8-10.5c10.2,0,18.8,8.6,18.8,18.8v189.5
	c0,10.2-8.6,18.8-18.8,18.8c-10.2,0-18.8-8.6-18.8-18.8v-120l-51.7,91.9c-3.3,5.9-9.6,9.2-16.1,9.2
	C849.3,319.4,843.1,316.1,839.8,310.2z"/>
<path d="M1039.1,225.8h62.3c9.2,0,16.8,7.6,16.8,16.8c0,9.2-7.6,16.8-16.8,16.8h-62.3v60.6h87.3c9.6,0,17.1,7.6,17.1,17.1
	s-7.6,17.1-17.1,17.1H1020c-10.5,0-19.1-8.6-19.1-19.1V151.7c0-10.5,8.6-19.1,19.1-19.1h102.8c9.6,0,17.1,7.6,17.1,17.1
	s-7.6,17.1-17.1,17.1h-83.7V225.8z M1053,101.6l28-35.6c4.6-5.9,13.2-5.6,19.8,1c7.3,6.9,6.6,14.8,1.3,19.8l-32.3,29.7
	c-5.6,4.9-10.9,4-15.2,0C1049.3,111.5,1049.3,105.5,1053,101.6z"/>
<path d="M175.5,624.7c10.2,0,17.3,7.4,17.3,16.7c0,9.6-7.1,16.7-17.3,16.7H83.8c-10.2,0-17.6-7.4-17.6-17.3V465.3c0-9.9,8-18,18-18
	s18,8,18,18v159.4H175.5z"/>
<path d="M254.1,537.4h58.5c8.7,0,15.8,7.1,15.8,15.8c0,8.7-7.1,15.8-15.8,15.8h-58.5v57h82c9,0,16.1,7.1,16.1,16.1
	s-7.1,16.1-16.1,16.1h-100c-9.9,0-18-8-18-18V467.8c0-9.9,8-18,18-18h96.6c9,0,16.1,7.1,16.1,16.1s-7.1,16.1-16.1,16.1h-78.6V537.4z
	"/>
<path d="M416,537.4h58.5c8.7,0,15.8,7.1,15.8,15.8c0,8.7-7.1,15.8-15.8,15.8H416v57h82c9,0,16.1,7.1,16.1,16.1s-7.1,16.1-16.1,16.1
	h-100c-9.9,0-18-8-18-18V467.8c0-9.9,8-18,18-18h96.6c9,0,16.1,7.1,16.1,16.1s-7.1,16.1-16.1,16.1H416V537.4z"/>
<path d="M699.3,465v178c0,9.6-8,17.6-17.6,17.6c-5.9,0-11.5-3.1-14.6-7.7L575.8,521v122c0,9.6-8,17.6-17.6,17.6s-17.6-8-17.6-17.6
	V465c0-9.6,8-17.6,17.6-17.6c6.2,0,11.1,2.8,14.2,7.4L664,587.6V465c0-9.6,8-17.6,17.6-17.6S699.3,455.4,699.3,465z"/>
<path d="M821.9,481.4v161.3c0,9.9-8,18-18,18s-18-8-18-18V481.4h-47.4c-8.7,0-15.8-7.1-15.8-15.8c0-8.7,7.1-15.8,15.8-15.8h130.7
	c8.7,0,15.8,7.1,15.8,15.8c0,8.7-7.1,15.8-15.8,15.8H821.9z"/>
<path d="M936.5,465.3c0-9.9,8-18,18-18s18,8,18,18v127.9c0,39.6-17.3,69-64.7,69c-12.4,0-28.2-3.1-36.8-8.4
	c-5.3-2.8-8.7-7.7-8.7-14.2c0-9,7.1-16.1,16.1-16.1c2.8,0,4.6,0.6,7.1,1.5c7.7,3.1,15.8,4.6,22.3,4.6c20.7,0,28.8-15.5,28.8-36.5
	V465.3z"/>
<path d="M1045.4,537.4h58.5c8.7,0,15.8,7.1,15.8,15.8c0,8.7-7.1,15.8-15.8,15.8h-58.5v57h82c9,0,16.1,7.1,16.1,16.1
	s-7.1,16.1-16.1,16.1h-100c-9.9,0-18-8-18-18V467.8c0-9.9,8-18,18-18h96.6c9,0,16.1,7.1,16.1,16.1s-7.1,16.1-16.1,16.1h-78.6V537.4z
	"/>
</svg>
