<?xml version="1.0" encoding="utf-8"?>
<!-- Generator: Adobe Illustrator 22.1.0, SVG Export Plug-In . SVG Version: 6.00 Build 0)  -->
<!DOCTYPE svg PUBLIC "-//W3C//DTD SVG 1.1//EN" "http://www.w3.org/Graphics/SVG/1.1/DTD/svg11.dtd">
<svg version="1.1" id="Layer_1" xmlns="http://www.w3.org/2000/svg" xmlns:xlink="http://www.w3.org/1999/xlink" x="0px" y="0px"
	 viewBox="0 0 500 500" enable-background="new 0 0 500 500" xml:space="preserve">
<path d="M161.7,261.7c-3.7-22.2,4.9-48.8,13.3-68.2c-14.5-0.6-38.3,22.6-38.3,22.6s-17.4-47.6-71.4-45.3
	c-29.1,1.3-56.9,38.3-41.2,105c10.2,43.4,42.4,54.9,60.9,50.8c19.7-4.4,44.1-31.9,44.1-18.3c0,14.3-9.9,23.8-22.1,25.5
	c-12.2,1.7-71.4-0.9-65.6,23.5c4.5,19,24.5,32.5,49.1,36.8l-0.4,0c0.2,0,0.3,0,0.5,0c3,0.5,6.1,0.9,9.2,1.2c1.7,0.9,3.5,2.3,6,4.8
	c6.7,6.7-5.6,44.3,3.9,44.3s0-35.3,0-43.8c0-2.3,1-4,2.5-5.2c7.6-0.4,15.3-1.6,22.8-3.7c35.9-10.3,45.4-35.6,42.7-64.4
	C175.3,300.5,165,280.8,161.7,261.7z M86.1,308.4c-6.1,3.5-20.9-26.1-27-41.8s-9-45.4,0-44.8c7.4,0.4,4.4,22.6,10.7,43.4
	C76.1,286,92.2,304.9,86.1,308.4z"/>
<path d="M482,265.7c0,0-58.6,3.5-76,2.9c-17.4-0.6-52.8-9.9-52.8,11.6c0,21.5,16.2,18,27.3,18s19.7-3.5,19.7,6.4s-19.7,9.9-45.8,9.9
	c-26.1,0-49.9-4.6-49.9-33.1s8.1-38.3,64.4-36.3c69,2.5,74.6,6.7,88.8-3.8c13.3-9.9,18-31.9,18-59.8c0-27.9-22.1-59.2-40.6-59.2
	c-9.4,0-30.8-9.9-44.7-22.6c-8.7,12.7-13.4,23.2-71.9,23.2c-49.7,0-78.6,1.2-93.4,11.6c-21.5,15.1-36,54-36,120.7
	c0,65.2,8.7,103.9,45.3,120.1c15.3,6.8,26.8,10.1,38.4,11.7l0,0c0,0,0,0,0,0c1.9,0.3,3.8,0.5,5.7,0.6c17.8,4.2,19.1,27.5,34.5,27.5
	c15.8,0,14.3-24,25.2-27.1c4.4,0,9.1,0,13.9,0c5.6,0.6,8.8,2.6,10.9,8.7c2.7,7.7-14.5,46.3,7.9,46.3c22.4,0,7-37.4,14.5-47.7
	c4.1-5.7,10.5-8,15.5-8.9c28.1-2.1,53.7-6.8,64.5-17.6c14.8-14.8,11.7-43.7,11.7-61.6C476.9,290,482,265.7,482,265.7z"/>
<path d="M259.2,111.9c0,0-18.6-2.3-21.5-16.2s-4.1-28.4-18-28.4s-17.4,20.9-8.1,30.2C230.9,116.7,259.2,111.9,259.2,111.9z"/>
<path d="M153.5,120.1c14.1,13.4,27.9,13.3,44.1,13.3c16.2,0,32.5-12.8,32.5-12.8s-11,8.1-31.9-17.4c-20.9-25.5-26.7-31.9-44.7-27.9
	C135.6,79.4,139.4,106.7,153.5,120.1z"/>
<path d="M22.4,172.7c0.2,0,0.5,0,0.7-0.1l0,0c0,0,0,0,0.1,0c0.1,0,0.3-0.1,0.4-0.1c2.1-0.2,0,3.5,3.5,3.5c3.3,0,1.3-6.2,3.8-9.6
	c0.2-0.2,0.4-0.4,0.6-0.6c0.1-0.1,0.3-0.3,0.4-0.4c4-3-2.9,14.4,1.3,14.4c4.2,0-0.5-15.5,3.1-18.6c0.2-0.1,0.3-0.2,0.5-0.3
	c1.7-1.1,5.8-1.6,9.3-2.1c6.6-0.9,13.4-1.8,13.1-7.1c-0.1-1.2-0.5-2.9-2.5-4.3c-4.8-3.5-16.8-3.3-25.2-1.1
	c-4.3,1.1-12.4,3.3-15.4,9.5c-1.6,3.5-1.4,7.6,0.7,12.2c0.5,1,1.9,4.2,4.9,4.6C21.9,172.7,22.1,172.7,22.4,172.7z M20.8,158.1
	c1.9-4,8.7-5.8,12-6.7h0c3.6-0.9,7.7-1.5,11.6-1.5c0.8,0,1.7,0,2.5,0.1c4.6,0.3,6.4,1.3,6.9,1.8c-1.3,0.9-5.7,1.4-8.5,1.8
	c-4.5,0.6-8.7,1.2-11.4,2.9c-3,1.9-5.4,4.7-7.5,7.1c-1.2,1.4-3,3.4-3.9,3.9c-0.2-0.2-0.5-0.6-0.9-1.5
	C20.1,162.8,19.8,160.1,20.8,158.1z"/>
</svg>
