<?xml version="1.0" encoding="utf-8"?>
<!-- Generator: Adobe Illustrator 21.0.0, SVG Export Plug-In . SVG Version: 6.00 Build 0)  -->
<!DOCTYPE svg PUBLIC "-//W3C//DTD SVG 1.1//EN" "http://www.w3.org/Graphics/SVG/1.1/DTD/svg11.dtd">
<svg version="1.1" id="Layer_1" xmlns="http://www.w3.org/2000/svg" xmlns:xlink="http://www.w3.org/1999/xlink" x="0px" y="0px"
	 viewBox="0 0 1842.5 1417.3" enable-background="new 0 0 1842.5 1417.3" xml:space="preserve">
<polyline points="515.6,396.9 707.6,457.4 707.6,555.4 516.6,555.4 707.6,617 707.6,755.8 375.2,755.8 375.2,249.4 707.6,294.4 
	707.6,396.6 "/>
<polygon points="1755.3,755.8 1649.3,755.8 1621.9,555.4 1570.3,555.4 1538.6,755.8 1423,755.8 1423,249.4 1535.3,249.4 
	1568.6,457.4 1613.3,457.4 1643.3,249.4 1755.3,249.4 "/>
<polygon points="1406.1,755.8 1073.7,755.8 1153.6,457.4 1073.7,392.4 1073.7,249.4 1406.1,249.4 1406.1,396.9 1320.6,457.4 "/>
<path d="M366.3,755.8H26V589.5l45.3-34.1l0-98L26,395V249.4h314.3L366.3,755.8z M238.6,555.4l-42.5-98v98H238.6z"/>
<path d="M1056.8,755.8H940.1l-42.9-200.4h-51.6l-24,200.4h-97.1V249.4h292.1L1056.8,755.8z M890.7,457.4l-42.5-60.5v60.5H890.7z"/>
<polygon points="1423,213.5 1589.2,78.5 1755.3,213.5 "/>
<polygon points="26,213.5 192.1,78.5 358.3,213.5 "/>
<polygon points="375.2,213.5 541.4,78.5 707.6,213.5 "/>
<polygon points="724.5,213.5 890.7,78.5 1056.8,213.5 "/>
<polygon points="1073.7,213.5 1239.9,78.5 1406.1,213.5 "/>
</svg>
