<?xml version="1.0" encoding="utf-8"?>
<!-- Generator: Adobe Illustrator 21.0.0, SVG Export Plug-In . SVG Version: 6.00 Build 0)  -->
<!DOCTYPE svg PUBLIC "-//W3C//DTD SVG 1.1//EN" "http://www.w3.org/Graphics/SVG/1.1/DTD/svg11.dtd">
<svg version="1.1" id="Layer_1" xmlns="http://www.w3.org/2000/svg" xmlns:xlink="http://www.w3.org/1999/xlink" x="0px" y="0px"
	 viewBox="0 0 841.9 1190.6" enable-background="new 0 0 841.9 1190.6" xml:space="preserve">
<g>
	<path d="M260.1,294L248,228.1l4.9,120.6h-36.5V162.5h35.8l20.2,84.7l20-84.7h34.9v186.2h-36.5l4.9-115.9L284.1,294H260.1z"/>
	<path d="M431.2,348.7l-6.3-45.4h-34l-7.4,45.4h-36.8l35.1-186.2h52.6l35.1,186.2H431.2z M420.5,272.6l-11.2-80.1L396,272.6H420.5z"
		/>
	<path d="M530.3,267.4v81.2h-41.9V162.5h41.9v74.2h7.2l24.9-74.2h46.8l-38.6,85.6l37.9,100.5h-45.6l-24.7-81.2H530.3z"/>
	<path d="M624.6,348.7V162.5h110.3v30.7h-68.4v40.5H726v30.7h-59.6v53.5h68.4v30.7H624.6z"/>
	<path d="M130.3,658c-8.7,0-17.2-1.3-25.6-4c-8.4-2.6-16.4-6.5-24-11.6l5.8-31.4c7.1,4.7,14.2,8.5,21.2,11.6c7,3.1,14.7,4.7,23,4.7
		c6.7,0,11.3-1.9,14-5.7c2.6-3.8,4-8.7,4-14.8c0-7.6-1.9-13.1-5.8-16.6c-3.9-3.5-10.5-7.4-19.8-11.8c-14.4-6.7-24.7-14.2-30.7-22.7
		c-6.1-8.5-9.1-19.3-9.1-32.5c0-16.1,4.7-29.4,14.2-39.8c9.5-10.4,22.7-15.6,39.8-15.6c8.4,0,16.4,1.2,24,3.7
		c7.6,2.5,14.5,6.1,20.7,10.9l-3.7,29.3c-6.8-4.5-13.1-7.8-19-9.9c-5.8-2.1-11.5-3.1-17.1-3.1c-5.7,0-10,1.6-12.9,4.9
		c-2.9,3.3-4.3,8.3-4.3,15.1c0,6.8,2,11.8,5.9,14.9c4,3.1,10.4,7.1,19.2,11.9c14.6,7.8,25,15.9,31.2,24.6c6.2,8.6,9.3,19.2,9.3,31.8
		c0,17.2-5.3,30.9-15.9,41C164,652.9,149.2,658,130.3,658z"/>
	<path d="M272,658.2c-17.1,0-30.4-6.4-40-19.2c-9.6-12.8-14.4-30.7-14.4-53.6v-44.2c0-23.3,4.8-41.4,14.4-54.3
		c9.6-13,23-19.4,40-19.4c17.1,0,30.4,6.5,40,19.4c9.6,13,14.4,31.1,14.4,54.3v44.2c0,23-4.8,40.8-14.4,53.6
		C302.4,651.8,289.1,658.2,272,658.2z M272,629.1c6.7,0,11.2-3.3,13.7-10c2.5-6.7,3.7-19,3.7-37v-37.7c0-18.3-1.2-30.9-3.7-37.7
		c-2.5-6.8-7.1-10.2-13.7-10.2c-6.7,0-11.3,3.4-13.7,10.2c-2.5,6.8-3.7,19.4-3.7,37.7v37.7c0,18,1.2,30.3,3.7,37
		C260.7,625.8,265.3,629.1,272,629.1z M272,582.6c-3.9,0-6.9-0.9-9.2-2.6c-2.3-1.7-3.4-5-3.4-9.8v-14.7c0-4.7,1.1-7.9,3.4-9.7
		c2.2-1.8,5.3-2.7,9.2-2.7c3.7,0,6.7,0.9,9,2.7c2.2,1.8,3.4,5,3.4,9.7v14.7c0,4.8-1.2,8.1-3.5,9.8
		C278.5,581.7,275.6,582.6,272,582.6z"/>
	<path d="M396.3,601.2l-12.1-65.9l4.9,120.6h-36.5V469.7h35.8l20.2,84.7l20-84.7h34.9v186.2H427l4.9-115.9l-11.6,61.2H396.3z"/>
	<path d="M488.4,655.9V469.7h110.3v30.7h-68.4v40.5h59.6v30.7h-59.6v53.5h68.4v30.7H488.4z"/>
	<path d="M144.7,963.1l-29.6-128.2v128.2H80V776.9h43.3l33,131v-131h35.4v186.2H144.7z"/>
	<path d="M272,965.4c-17.1,0-30.4-6.4-40-19.2c-9.6-12.8-14.4-30.7-14.4-53.6v-44.2c0-23.3,4.8-41.4,14.4-54.3
		c9.6-13,23-19.4,40-19.4c17.1,0,30.4,6.5,40,19.4c9.6,13,14.4,31.1,14.4,54.3v44.2c0,23-4.8,40.8-14.4,53.6
		C302.4,959,289.1,965.4,272,965.4z M272,936.3c6.7,0,11.2-3.3,13.7-10c2.5-6.7,3.7-19,3.7-37v-37.7c0-18.3-1.2-30.9-3.7-37.7
		c-2.5-6.8-7.1-10.2-13.7-10.2c-6.7,0-11.3,3.4-13.7,10.2c-2.5,6.8-3.7,19.4-3.7,37.7v37.7c0,18,1.2,30.3,3.7,37
		C260.7,933,265.3,936.3,272,936.3z M272,889.8c-3.9,0-6.9-0.9-9.2-2.6c-2.3-1.7-3.4-5-3.4-9.8v-14.7c0-4.7,1.1-7.9,3.4-9.7
		c2.2-1.8,5.3-2.7,9.2-2.7c3.7,0,6.7,0.9,9,2.7c2.2,1.8,3.4,5,3.4,9.7v14.7c0,4.8-1.2,8.1-3.5,9.8
		C278.5,888.9,275.6,889.8,272,889.8z"/>
	<path d="M352.3,963.1v-30.7h34.9V807.6h-34.9v-30.7H464v30.7h-34.9v124.7H464v30.7H352.3z"/>
	<path d="M538.7,965.2c-8.7,0-17.2-1.3-25.6-4c-8.4-2.6-16.4-6.5-24-11.6l5.8-31.4c7.1,4.7,14.2,8.5,21.2,11.6
		c7,3.1,14.7,4.7,23,4.7c6.7,0,11.3-1.9,14-5.7c2.6-3.8,4-8.7,4-14.8c0-7.6-1.9-13.1-5.8-16.6c-3.9-3.5-10.5-7.4-19.8-11.8
		c-14.4-6.7-24.7-14.2-30.7-22.7c-6.1-8.5-9.1-19.3-9.1-32.5c0-16.1,4.7-29.4,14.2-39.8c9.5-10.4,22.7-15.6,39.8-15.6
		c8.4,0,16.4,1.2,24,3.7c7.6,2.5,14.5,6.1,20.7,10.9l-3.7,29.3c-6.8-4.5-13.1-7.8-19-9.9s-11.5-3.1-17.1-3.1c-5.7,0-10,1.6-12.9,4.9
		c-2.9,3.3-4.3,8.3-4.3,15.1c0,6.8,2,11.8,5.9,14.9c4,3.1,10.4,7.1,19.2,11.9c14.6,7.8,25,15.9,31.2,24.6c6.2,8.6,9.3,19.2,9.3,31.8
		c0,17.2-5.3,30.9-15.9,41C572.4,960.1,557.6,965.2,538.7,965.2z"/>
	<path d="M624.6,963.1V776.9h110.3v30.7h-68.4v40.5H726v30.7h-59.6v53.5h68.4v30.7H624.6z"/>
</g>
</svg>
