<?xml version="1.0" encoding="utf-8"?>
<!-- Generator: Adobe Illustrator 21.0.0, SVG Export Plug-In . SVG Version: 6.00 Build 0)  -->
<!DOCTYPE svg PUBLIC "-//W3C//DTD SVG 1.1//EN" "http://www.w3.org/Graphics/SVG/1.1/DTD/svg11.dtd">
<svg version="1.1" xmlns="http://www.w3.org/2000/svg" xmlns:xlink="http://www.w3.org/1999/xlink" x="0px" y="0px"
	 viewBox="0 0 841.9 1190.6" enable-background="new 0 0 841.9 1190.6" xml:space="preserve">
<g id="Layer_1_copy">
	<g>
		<path d="M0,0v1190.6h841.9V0H0z M142.9,590.2c-3.9-3.5-10.5-7.4-19.8-11.8c-14.4-6.7-24.7-14.2-30.7-22.7
			c-6.1-8.5-9.1-19.3-9.1-32.5c0-16.1,4.7-29.4,14.2-39.8c9.5-10.4,22.7-15.6,39.8-15.6c8.4,0,16.4,1.2,24,3.7
			c7.6,2.5,14.5,6.1,20.7,10.9l-3.7,29.3c-6.8-4.5-13.1-7.8-19-9.9c-5.8-2.1-11.5-3.1-17.1-3.1c-5.7,0-10,1.6-12.9,4.9
			c-2.9,3.3-4.3,8.3-4.3,15.1s2,11.8,5.9,14.9c4,3.1,10.4,7.1,19.2,11.9c14.6,7.8,25,15.9,31.2,24.6c6.2,8.6,9.3,19.2,9.3,31.8
			c0,17.2-5.3,30.9-15.9,41c-10.7,10-25.5,15.1-44.4,15.1c-8.7,0-17.2-1.3-25.6-4c-8.4-2.6-16.4-6.5-24-11.6l5.8-31.4
			c7.1,4.7,14.2,8.5,21.2,11.6s14.7,4.7,23,4.7c6.7,0,11.3-1.9,14-5.7c2.6-3.8,4-8.7,4-14.8C148.7,599.2,146.8,593.7,142.9,590.2z
			 M191.7,963.1h-47v0l-29.6-128.2v128.2H80V776.9h43.3l33,131v-131h35.4V963.1z M326.4,892.6c0,23-4.8,40.8-14.4,53.6
			c-9.6,12.8-22.9,19.2-40,19.2c-17.1,0-30.4-6.4-40-19.2c-9.6-12.8-14.4-30.7-14.4-53.6v-44.2c0-23.3,4.8-41.4,14.4-54.3
			c9.6-13,23-19.4,40-19.4c17.1,0,30.4,6.5,40,19.4c9.6,13,14.4,31.1,14.4,54.3V892.6z M326.4,585.4c0,23-4.8,40.8-14.4,53.6
			c-9.6,12.8-22.9,19.2-40,19.2c-17.1,0-30.4-6.4-40-19.2c-9.6-12.8-14.4-30.7-14.4-53.6v-44.2c0-23.3,4.8-41.4,14.4-54.3
			c9.6-13,23-19.4,40-19.4c17.1,0,30.4,6.5,40,19.4c9.6,13,14.4,31.1,14.4,54.3V585.4z M327.3,348.7h-36.5l4.9-115.9L284.1,294h-24
			L248,228.1l4.9,120.6h-36.5V162.5h35.8l20.2,84.7l20-84.7h34.9V348.7z M464,807.6h-34.9v124.7H464V963H352.3v0.1V963v-30.6h34.9
			V807.6h-34.9v-30.7H464V807.6z M420.3,601.2h-24l-12.1-65.9l4.9,120.6h-36.5V469.7h35.8l20.2,84.7l20-84.7h34.9v186.2H427
			l4.9-115.9L420.3,601.2z M431.2,348.7l-6.3-45.4h-34l-7.4,45.4h-36.8l35.1-186.2h52.6l35.1,186.2H431.2z M488.4,655.9L488.4,655.9
			V469.7h110.3v30.7h-68.4v40.5h59.6v30.7h-59.6v53.5h68.4v30.7L488.4,655.9L488.4,655.9z M583.1,950.1
			c-10.7,10-25.5,15.1-44.4,15.1c-8.7,0-17.2-1.3-25.6-4c-8.4-2.6-16.4-6.5-24-11.6l5.8-31.4c7.1,4.7,14.2,8.5,21.2,11.6
			s14.7,4.7,23,4.7c6.7,0,11.3-1.9,14-5.7c2.6-3.8,4-8.7,4-14.8c0-7.6-1.9-13.1-5.8-16.6c-3.9-3.5-10.5-7.4-19.8-11.8
			c-14.4-6.7-24.7-14.2-30.7-22.7c-6.1-8.5-9.1-19.3-9.1-32.5c0-16.1,4.7-29.4,14.2-39.8c9.5-10.4,22.7-15.6,39.8-15.6
			c8.4,0,16.4,1.2,24,3.7s14.5,6.1,20.7,10.9l-3.7,29.3c-6.8-4.5-13.1-7.8-19-9.9s-11.5-3.1-17.1-3.1c-5.7,0-10,1.6-12.9,4.9
			c-2.9,3.3-4.3,8.3-4.3,15.1s2,11.8,5.9,14.9c4,3.1,10.4,7.1,19.2,11.9c14.6,7.8,25,15.9,31.2,24.6c6.2,8.6,9.3,19.2,9.3,31.8
			C599,926.3,593.7,940,583.1,950.1z M608.5,348.6h-45.6l-24.7-81.2h-7.9v81.2h-41.9V162.5h41.9v74.2h7.2l24.9-74.2h46.8l-38.6,85.6
			L608.5,348.6z M734.9,807.6h-68.4v40.5H726v30.7h-59.6v53.5h68.4V963H624.6v0.1V963V776.9h110.3V807.6z M734.9,193.2h-68.4v40.5
			H726v30.7h-59.6v53.5h68.4v30.7H624.6v0.1v-0.1V162.5h110.3V193.2z"/>
	</g>
</g>
</svg>
