<?xml version="1.0" encoding="utf-8"?>
<!-- Generator: Adobe Illustrator 21.0.0, SVG Export Plug-In . SVG Version: 6.00 Build 0)  -->
<!DOCTYPE svg PUBLIC "-//W3C//DTD SVG 1.1//EN" "http://www.w3.org/Graphics/SVG/1.1/DTD/svg11.dtd">
<svg version="1.1" id="Layer_1" xmlns="http://www.w3.org/2000/svg" xmlns:xlink="http://www.w3.org/1999/xlink" x="0px" y="0px"
	 viewBox="0 0 841.9 1190.6" enable-background="new 0 0 841.9 1190.6" xml:space="preserve">
<path d="M173.3,276.9l-40.2-71.4v93.2c0,7.9-6.7,14.6-14.6,14.6c-7.9,0-14.6-6.7-14.6-14.6V151.5c0-7.9,6.7-14.6,14.6-14.6
	c6.4,0,10.5,3.6,13.1,8.2l54.3,97.3l54.3-97.3c2.6-4.6,6.7-8.2,13.1-8.2c7.9,0,14.6,6.7,14.6,14.6v147.2c0,7.9-6.7,14.6-14.6,14.6
	c-7.9,0-14.6-6.7-14.6-14.6v-93.2l-40.2,71.4c-2.6,4.6-7.4,7.2-12.5,7.2C180.8,284.1,175.9,281.5,173.3,276.9z"/>
<path d="M332.1,266.4l-15.6,37.1c-2.3,5.4-7.2,9.7-13.8,9.7c-7.9,0-14.6-6.7-14.6-14.6c0-1.5,0.3-3.6,1-5.4l60.4-147.2
	c1.5-3.6,5.6-9.2,13.6-9.2c7.9,0,12,5.6,13.6,9.2L437,293.3c0.8,1.8,1,3.8,1,5.4c0,7.9-6.7,14.6-14.6,14.6c-6.7,0-11.5-4.4-13.8-9.7
	L394,266.4H332.1z M363,185.5l-21,53.8h42L363,185.5z"/>
<path d="M488,210.4l61.4-68.6c3.1-3.3,6.9-4.9,10.8-4.9c7.9,0,14.3,6.4,14.3,14.3c0,4.1-1.5,7.2-3.8,9.7l-48.1,52.2l56.6,77.1
	c1.8,2.3,2.8,5.4,2.8,8.4c0,7.9-6.7,14.6-14.6,14.6c-6.1,0-10-3.6-12-6.4l-52.7-73L488,249.3v49.2c0,8.2-6.7,14.8-14.8,14.8
	c-8.2,0-14.8-6.7-14.8-14.8V151.7c0-8.2,6.7-14.8,14.8-14.8c8.2,0,14.8,6.7,14.8,14.8V210.4z"/>
<path d="M630.3,211.4h48.4c7.2,0,13.1,5.9,13.1,13.1s-5.9,13.1-13.1,13.1h-48.4v47.1h67.8c7.4,0,13.3,5.9,13.3,13.3
	c0,7.4-5.9,13.3-13.3,13.3h-82.7c-8.2,0-14.8-6.7-14.8-14.8V153.8c0-8.2,6.7-14.8,14.8-14.8h79.9c7.4,0,13.3,5.9,13.3,13.3
	s-5.9,13.3-13.3,13.3h-65V211.4z"/>
<path d="M164.1,469.2c-21.2,0-29.2,10-29.2,20.2c0,33.5,93.4,17.9,93.4,81.9c0,31.2-22,50.7-64.3,50.7c-30.5,0-54.8-15.1-64.8-31.2
	c-1.3-2-2-4.6-2-7.2c0-7.7,6.1-13.8,13.6-13.8c5.6,0,8.7,3.1,11.3,5.6c10.8,10.8,24.3,19.5,42,19.5c23.3,0,34.6-7.7,34.6-23.6
	c0-37.4-93.4-20.2-93.4-81.9c0-25.3,18.2-46.8,58.9-46.8c25.6,0,47.9,9.5,58.1,24.1c1.5,2.3,2.6,5.1,2.6,8.2
	c0,7.4-6.1,13.6-13.8,13.6c-3.6,0-7.2-2-11-5.6C192,475.1,178.7,469.2,164.1,469.2z"/>
<path d="M245.3,532.4c0-60.7,29.4-89.9,81.2-89.9s81.2,29.2,81.2,89.9c0,59.9-29.4,89.6-81.2,89.6S245.3,592.3,245.3,532.4z
	 M276,532.4c0,42.2,16.6,63,50.4,63s50.4-20.7,50.4-63c0-42.5-16.6-63.2-50.4-63.2S276,489.9,276,532.4z"/>
<path d="M499.7,584.1l-40.2-71.4v93.2c0,7.9-6.7,14.6-14.6,14.6c-7.9,0-14.6-6.7-14.6-14.6V458.7c0-7.9,6.7-14.6,14.6-14.6
	c6.4,0,10.5,3.6,13.1,8.2l54.3,97.3l54.3-97.3c2.6-4.6,6.7-8.2,13.1-8.2c7.9,0,14.6,6.7,14.6,14.6v147.2c0,7.9-6.7,14.6-14.6,14.6
	c-7.9,0-14.6-6.7-14.6-14.6v-93.2l-40.2,71.4c-2.6,4.6-7.4,7.2-12.5,7.2S502.3,588.7,499.7,584.1z"/>
<path d="M654.6,518.6H703c7.2,0,13.1,5.9,13.1,13.1s-5.9,13.1-13.1,13.1h-48.4v47.1h67.8c7.4,0,13.3,5.9,13.3,13.3
	s-5.9,13.3-13.3,13.3h-82.7c-8.2,0-14.8-6.7-14.8-14.8V461c0-8.2,6.7-14.8,14.8-14.8h79.9c7.4,0,13.3,5.9,13.3,13.3
	s-5.9,13.3-13.3,13.3h-65V518.6z"/>
<path d="M235.3,765.9v147.2c0,7.9-6.7,14.6-14.6,14.6c-4.9,0-9.5-2.6-12-6.4l-75.5-109.1v100.9c0,7.9-6.7,14.6-14.6,14.6
	c-7.9,0-14.6-6.7-14.6-14.6V765.9c0-7.9,6.7-14.6,14.6-14.6c5.1,0,9.2,2.3,11.8,6.1l75.8,109.8V765.9c0-7.9,6.7-14.6,14.6-14.6
	C228.6,751.3,235.3,757.9,235.3,765.9z"/>
<path d="M258.1,839.6c0-60.7,29.4-89.9,81.2-89.9s81.2,29.2,81.2,89.9c0,59.9-29.4,89.6-81.2,89.6S258.1,899.5,258.1,839.6z
	 M288.8,839.6c0,42.2,16.6,63,50.4,63s50.4-20.7,50.4-63c0-42.5-16.6-63.2-50.4-63.2S288.8,797.1,288.8,839.6z"/>
<path d="M474.1,912.8c0,8.2-6.7,14.8-14.8,14.8c-8.2,0-14.8-6.7-14.8-14.8V766.1c0-8.2,6.7-14.8,14.8-14.8c8.2,0,14.8,6.7,14.8,14.8
	V912.8z"/>
<path d="M563.7,776.4c-21.2,0-29.2,10-29.2,20.2c0,33.5,93.4,17.9,93.4,81.9c0,31.2-22,50.7-64.3,50.7c-30.5,0-54.8-15.1-64.8-31.2
	c-1.3-2-2-4.6-2-7.2c0-7.7,6.1-13.8,13.6-13.8c5.6,0,8.7,3.1,11.3,5.6c10.8,10.8,24.3,19.5,42,19.5c23.3,0,34.6-7.7,34.6-23.6
	c0-37.4-93.4-20.2-93.4-81.9c0-25.3,18.2-46.8,58.9-46.8c25.6,0,47.9,9.5,58.1,24.1c1.5,2.3,2.6,5.1,2.6,8.2
	c0,7.4-6.1,13.6-13.8,13.6c-3.6,0-7.2-2-11-5.6C591.6,782.3,578.3,776.4,563.7,776.4z"/>
<path d="M681.2,825.8h48.4c7.2,0,13.1,5.9,13.1,13.1s-5.9,13.1-13.1,13.1h-48.4V899h67.8c7.4,0,13.3,5.9,13.3,13.3
	s-5.9,13.3-13.3,13.3h-82.7c-8.2,0-14.8-6.7-14.8-14.8V768.2c0-8.2,6.7-14.8,14.8-14.8h79.9c7.4,0,13.3,5.9,13.3,13.3
	s-5.9,13.3-13.3,13.3h-65V825.8z"/>
</svg>
