<?xml version="1.0" encoding="utf-8"?>
<!-- Generator: Adobe Illustrator 21.0.0, SVG Export Plug-In . SVG Version: 6.00 Build 0)  -->
<!DOCTYPE svg PUBLIC "-//W3C//DTD SVG 1.1//EN" "http://www.w3.org/Graphics/SVG/1.1/DTD/svg11.dtd">
<svg version="1.1" id="Layer_1" xmlns="http://www.w3.org/2000/svg" xmlns:xlink="http://www.w3.org/1999/xlink" x="0px" y="0px"
	 viewBox="0 0 1190.6 841.9" enable-background="new 0 0 1190.6 841.9" xml:space="preserve">
<path d="M183.7,420.4H97.2L112,281.6L45,50.4h84.6l33.8,145.2l65.2-145.2h84.6L198.5,281.6L183.7,420.4z"/>
<path d="M428.4,425c-41.3,0-70.5-10.8-87.6-32.4c-17.1-21.6-23.4-55-18.7-100.4l25.4-241.9h86.5l-25.4,240.5
	c-2.5,25.9-1.8,43.5,2.1,52.7c3.9,9.2,12.1,13.9,24.7,13.9c12.9,0,22.4-4.6,28.4-13.9c6-9.2,10.2-26.8,12.7-52.7l25.4-240.5h86.5
	L563,292.3c-4.6,45.3-17.9,78.8-39.8,100.4C501.3,414.2,469.7,425,428.4,425z"/>
<path d="M700.3,261.3l-16.7,159.1h-86.5l38.8-370h86.5l-15.3,147.1H723l77.7-147.1h96.7L790,220.6l67.1,199.8h-94.8l-44.9-159.1
	H700.3z"/>
<path d="M885.8,420.4l6.9-63.8h77.2l25.4-242.3h-77.2l6.5-63.8h241l-6.5,63.8h-77.2l-25.4,242.3h77.2l-6.9,63.8H885.8z"/>
<path d="M92.5,788H21l32.1-306H161c27.8,0,47.9,7.2,60.2,21.6c12.4,14.4,17.1,35.1,14.3,62.2l-2.7,26.8c-2,19.9-7.3,36.5-15.9,49.9
	c-8.5,13.4-19.6,22.9-33.1,28.5l39.4,117h-74.2l-36-109.4H104L92.5,788z M109.4,626.2h24.1c9.9,0,17.4-2.4,22.4-7.1
	c5-4.7,8.2-14,9.8-27.7l2.3-22.6c1.5-13.8,0.3-22.9-3.6-27.3c-4-4.5-10.9-6.7-20.8-6.7h-24.1L109.4,626.2z"/>
<path d="M259.7,788l32.1-306h197.8l-5.4,52.8H358l-6.9,63.5h110.2l-5.4,52.8H345.7l-8.8,84.2h126.2l-5.7,52.8H259.7z"/>
<path d="M498.3,788l32.1-306h197.8l-5.4,52.8H596.7l-6.9,63.5h110.2l-5.4,52.8H584.4l-8.8,84.2h126.2l-5.7,52.8H498.3z"/>
<path d="M885.1,788h-96.8l-30.2-306h69.6l14.5,247.9L912.6,482h67.3L885.1,788z"/>
<path d="M1095.6,788l-4.6-72.7h-66.2l-21.8,72.7H940l98.3-306h89.1l34.4,306H1095.6z M1087.2,662.5l-8-128.9l-38.6,128.9H1087.2z"/>
</svg>
